<svg width="16" height="16" viewBox="0 0 16 16" fill="none" xmlns="http://www.w3.org/2000/svg">
<path d="M0.31833 13.8008C-0.0857547 14.1773 -0.108136 14.8101 0.268341 15.2141C0.644817 15.6182 1.27759 15.6406 1.68167 15.2641L0.31833 13.8008ZM15.4508 2.03546C15.4703 1.48352 15.0387 1.02026 14.4867 1.00074L5.49237 0.68261C4.94043 0.663088 4.47717 1.0947 4.45765 1.64664C4.43812 2.19858 4.86973 2.66184 5.42167 2.68136L13.4167 2.96414L13.1339 10.9591C13.1144 11.5111 13.546 11.9743 14.0979 11.9939C14.6499 12.0134 15.1131 11.5818 15.1326 11.0298L15.4508 2.03546ZM1.68167 15.2641L15.1331 2.73177L13.7697 1.26845L0.31833 13.8008L1.68167 15.2641Z" fill="#FBFBFB"/>
</svg>
